<svg width="157" height="180" viewBox="0 0 157 180" fill="none" xmlns="http://www.w3.org/2000/svg">
<path fill-rule="evenodd" clip-rule="evenodd" d="M37.0449 60.2574C35.5093 60.2574 34.131 59.3178 33.5618 57.8854L26.6613 40.5584L9.41736 33.6261C7.9915 33.0542 7.05618 31.6678 7.05618 30.1269C7.05618 28.586 7.9915 27.1995 9.41736 26.6276L26.6613 19.6954L33.5618 2.37205C34.131 0.939626 35.5093 0 37.0449 0C38.5788 0 39.9589 0.939626 40.5263 2.37205L47.4286 19.6954L64.6725 26.6313C66.0984 27.2032 67.0337 28.5896 67.0337 30.1306C67.0337 31.6733 66.0984 33.0579 64.6725 33.6298L47.4286 40.5621L40.5263 57.8854C39.9589 59.3178 38.5788 60.2574 37.0449 60.2574ZM34.121 25.102C33.7423 26.0551 32.9903 26.8106 32.0416 27.193L22.0506 31.2047L32.0416 35.2165C32.9903 35.5988 33.7423 36.3544 34.121 37.3075L38.116 47.3451L42.1091 37.3075C42.4878 36.3544 43.2417 35.5988 44.1903 35.2165L54.1814 31.2047L44.1903 27.193C43.2417 26.8106 42.4878 26.0551 42.1091 25.102L38.116 15.0644L34.121 25.102ZM157 66.4604C157 63.0348 154.236 60.2574 150.826 60.2574C147.416 60.2574 144.652 63.0348 144.652 66.4604C144.652 69.886 147.416 72.6634 150.826 72.6634C154.234 72.6591 156.996 69.8848 157 66.4604ZM150.826 70.1822C148.78 70.1822 147.121 68.5157 147.121 66.4604C147.121 64.4051 148.78 62.7386 150.826 62.7386C152.872 62.7386 154.53 64.4051 154.53 66.4604C154.53 68.5157 152.872 70.1822 150.826 70.1822ZM21.2127 88.6139C21.2127 82.7415 16.4637 77.9802 10.6064 77.9802C4.74801 77.9802 0 82.7415 0 88.6139C0 94.4863 4.74801 99.2475 10.6064 99.2475C16.4606 99.2403 21.2055 94.4842 21.2127 88.6139ZM10.6064 94.9941C7.09197 94.9941 4.24255 92.1373 4.24255 88.6139C4.24255 85.0904 7.09197 82.2337 10.6064 82.2337C14.1208 82.2337 16.9702 85.0904 16.9702 88.6139C16.9702 92.1373 14.1208 94.9941 10.6064 94.9941ZM156.167 152.953L150.081 150.506L147.644 144.392C147.444 143.886 146.957 143.554 146.416 143.554C145.874 143.554 145.387 143.886 145.186 144.392L142.751 150.506L136.665 152.953C136.162 153.155 135.831 153.644 135.831 154.188C135.831 154.732 136.162 155.221 136.665 155.423L142.751 157.87L145.186 163.985C145.387 164.49 145.874 164.822 146.416 164.822C146.957 164.822 147.444 164.49 147.644 163.985L150.081 157.87L156.167 155.423C156.67 155.221 157 154.732 157 154.188C157 153.644 156.67 153.155 156.167 152.953ZM148.57 155.611C148.233 155.747 147.966 156.015 147.831 156.353L146.414 159.914L144.997 156.353C144.863 156.015 144.596 155.747 144.259 155.611L140.715 154.188L144.259 152.765C144.596 152.629 144.863 152.361 144.997 152.023L146.414 148.462L147.831 152.023C147.966 152.361 148.233 152.629 148.57 152.765L152.114 154.188L148.57 155.611ZM93.0581 45.7877C93.4559 46.1864 93.9955 46.4107 94.5579 46.4107C95.1204 46.4107 95.66 46.1864 96.0577 45.7877L102.057 39.773C102.885 38.9422 102.885 37.5964 102.057 36.7657L96.0577 30.751C95.2291 29.9213 93.8867 29.9213 93.0581 30.751L87.0589 36.7657C86.2313 37.5964 86.2313 38.9422 87.0589 39.773L93.0581 45.7877ZM94.5579 41.2767L91.5583 38.2693L94.5579 35.262L97.5575 38.2693L94.5579 41.2767ZM110.434 110.213C109.872 110.213 109.332 109.988 108.935 109.59L102.935 103.575C102.108 102.744 102.108 101.398 102.935 100.568L108.935 94.553C109.763 93.7233 111.106 93.7233 111.934 94.553L117.933 100.568C118.761 101.398 118.761 102.744 117.933 103.575L111.934 109.59C111.536 109.988 110.997 110.213 110.434 110.213ZM107.435 102.071L110.434 105.079L113.434 102.071L110.434 99.064L107.435 102.071Z" fill="#DD830B"/>
<path fill-rule="evenodd" clip-rule="evenodd" d="M75.8539 129.376C82.4506 129.376 88.6524 131.957 93.317 136.643C97.9816 141.33 100.55 147.561 100.55 154.188C100.55 160.816 97.9816 167.046 93.317 171.733C88.6524 176.419 82.4506 179 75.8539 179C69.2571 179 63.0552 176.419 58.3906 171.733C53.7261 167.046 51.1572 160.816 51.1572 154.188C51.1572 147.561 53.7261 141.33 58.3906 136.643C63.0551 131.957 69.2571 129.376 75.8539 129.376ZM54.0514 154.188C54.0514 166.266 63.8319 176.092 75.8539 176.092C87.8758 176.092 97.6563 166.266 97.6563 154.188C97.6563 142.11 87.8758 132.284 75.8539 132.284C63.8319 132.284 54.0514 142.11 54.0514 154.188Z" fill="#DD830B"/>
<path d="M93.317 136.643L93.5899 136.372L93.5898 136.372L93.317 136.643ZM93.317 171.733L93.5898 172.004L93.317 171.733ZM58.3906 136.643L58.1178 136.372L58.3906 136.643ZM93.5898 136.372C88.8532 131.613 82.5532 128.991 75.8539 128.991V129.761C82.3479 129.761 88.4516 132.301 93.0441 136.915L93.5898 136.372ZM100.935 154.188C100.935 147.459 98.3264 141.131 93.5899 136.372L93.0441 136.915C97.6367 141.529 100.165 147.662 100.165 154.188H100.935ZM93.5898 172.004C98.3264 167.246 100.935 160.917 100.935 154.188H100.165C100.165 160.714 97.6367 166.847 93.0441 171.461L93.5898 172.004ZM75.8539 179.385C82.5532 179.385 88.8532 176.763 93.5898 172.004L93.0441 171.461C88.4516 176.075 82.3479 178.615 75.8539 178.615V179.385ZM58.1178 172.004C62.8544 176.763 69.1544 179.385 75.8539 179.385V178.615C69.3597 178.615 63.256 176.075 58.6635 171.461L58.1178 172.004ZM50.7722 154.188C50.7722 160.917 53.3812 167.246 58.1178 172.004L58.6635 171.461C54.0709 166.847 51.5422 160.714 51.5422 154.188H50.7722ZM58.1178 136.372C53.3812 141.13 50.7722 147.459 50.7722 154.188H51.5422C51.5422 147.662 54.0709 141.529 58.6635 136.915L58.1178 136.372ZM75.8539 128.991C69.1544 128.991 62.8543 131.613 58.1178 136.372L58.6635 136.915C63.2559 132.301 69.3597 129.761 75.8539 129.761V128.991ZM75.8539 175.707C64.0462 175.707 54.4364 166.055 54.4364 154.188H53.6664C53.6664 166.477 63.6176 176.477 75.8539 176.477V175.707ZM97.2714 154.188C97.2714 166.055 87.6615 175.707 75.8539 175.707V176.477C88.0901 176.477 98.0413 166.477 98.0413 154.188H97.2714ZM75.8539 132.669C87.6615 132.669 97.2714 142.321 97.2714 154.188H98.0413C98.0413 141.899 88.0901 131.899 75.8539 131.899V132.669ZM54.4364 154.188C54.4364 142.321 64.0462 132.669 75.8539 132.669V131.899C63.6176 131.899 53.6664 141.899 53.6664 154.188H54.4364Z" fill="#DD830B"/>
<path d="M87.6529 146.227C87.0878 145.659 86.1716 145.659 85.6065 146.227L72.828 159.065L66.1014 152.307C65.5364 151.739 64.6201 151.739 64.0549 152.307C63.4898 152.875 63.4898 153.795 64.0549 154.363L71.8048 162.149C72.0873 162.433 72.4577 162.575 72.8279 162.575C73.1982 162.575 73.5687 162.433 73.8511 162.149L87.6529 148.283C88.218 147.715 88.218 146.795 87.6529 146.227Z" fill="#DD830B" stroke="#DD830B" stroke-width="0.77"/>
</svg>
