<svg width="50" height="20" viewBox="0 0 50 20" fill="none" xmlns="http://www.w3.org/2000/svg">
<path d="M20.2768 0.925936H24.3777L21.8124 19.504H17.7115L20.2768 0.925936Z" fill="#0E1017"/>
<path d="M32.6267 0.304916C34.16 0.304916 35.3889 0.715822 36.1725 1.09791L35.637 5.18471L35.2826 4.96734C34.5526 4.58525 33.615 4.21753 32.3216 4.24359C30.7733 4.24359 30.0575 5.08153 30.0575 5.8655C30.0485 6.74884 30.8939 7.33141 32.2763 8.20382C34.5579 9.54981 35.6125 11.1818 35.5976 13.3272C35.5669 17.2419 32.8682 19.7715 28.7109 19.7715C26.9373 19.7478 25.2285 19.2923 24.3048 18.7659L24.86 14.543L25.37 14.8439C26.6688 15.548 27.5099 15.8328 29.0928 15.8328C30.2295 15.8328 31.4496 15.2554 31.4593 13.9913C31.4667 13.1658 30.9493 12.5772 29.4098 11.6529C27.9096 10.7506 25.9208 9.23934 25.9429 6.52948C25.9663 2.86367 28.7189 0.304916 32.6267 0.304916Z" fill="#0E1017"/>
<path fill-rule="evenodd" clip-rule="evenodd" d="M43.4391 0.925936H46.5458L49.7982 19.504H46.0694C46.0694 19.504 45.6994 17.3697 45.5792 16.7189C44.9931 16.7189 40.894 16.7118 40.4328 16.7118C40.2768 17.2148 39.5863 19.5039 39.5863 19.5039H35.3672L41.3345 2.46897C41.757 1.25842 42.4772 0.925936 43.4391 0.925936ZM43.2147 7.68072C43.2034 7.70417 43.278 7.46074 43.381 7.12477C43.4932 6.75881 43.6391 6.28303 43.7443 5.92275L44.014 7.50889C44.014 7.50889 44.7794 11.902 44.9393 12.8232L41.622 12.8257C41.9523 11.7653 43.2147 7.68072 43.2147 7.68072Z" fill="#0E1017"/>
<path d="M0.57153 0.904457H6.9562C7.81596 0.943897 8.5101 1.27974 8.74975 2.41164L10.1259 11.0295V11.0342L10.5393 13.6163L14.4158 0.904457H18.6092L12.3762 19.5112L8.18665 19.5159C8.18665 19.5159 5.74763 4.56528 4.18964 2.97188C2.63165 1.37848 0.522328 1.2747 0.522328 1.2747L0.57153 0.904457Z" fill="#0E1017"/>
</svg>
