<svg width="23" height="26" viewBox="0 0 23 26" fill="none" xmlns="http://www.w3.org/2000/svg">
<path d="M11.5007 0L22.9999 5.57143V7.42857H21.4667C21.4667 7.68006 21.3848 7.89769 21.2211 8.08147C21.0574 8.26525 20.8638 8.35714 20.6402 8.35714H2.3612C2.13761 8.35714 1.94396 8.26525 1.78025 8.08147C1.61655 7.89769 1.5347 7.68006 1.5347 7.42857H0.00146484V5.57143L11.5007 0ZM3.06793 9.28571H6.13439V20.4286H7.66762V9.28571H10.7341V20.4286H12.2673V9.28571H15.3338V20.4286H16.867V9.28571H19.9335V20.4286H20.6402C20.8638 20.4286 21.0574 20.5205 21.2211 20.7042C21.3848 20.888 21.4667 21.1057 21.4667 21.3571V22.2857H1.5347V21.3571C1.5347 21.1057 1.61655 20.888 1.78025 20.7042C1.94396 20.5205 2.13761 20.4286 2.3612 20.4286H3.06793V9.28571ZM22.1734 23.2143C22.397 23.2143 22.5907 23.3062 22.7544 23.49C22.9181 23.6737 22.9999 23.8914 22.9999 24.1429V26H0.00146484V24.1429C0.00146484 23.8914 0.083317 23.6737 0.247021 23.49C0.410726 23.3062 0.604376 23.2143 0.827972 23.2143H22.1734Z" fill="#0E1017"/>
</svg>
