<svg width="55" height="16" viewBox="0 0 55 16" fill="none" xmlns="http://www.w3.org/2000/svg">
<path d="M35.2949 11.8171V3.36524H36.7282V4.04295C37.1644 3.49767 37.811 3.20166 38.6133 3.20166C40.2647 3.20166 41.4488 4.51812 41.4488 6.40322C41.4488 8.28833 40.257 9.62816 38.6133 9.62816C37.8032 9.62816 37.1644 9.31657 36.7282 8.77129V11.8171H35.2949ZM36.7282 5.62425V7.18219C37.032 7.81316 37.5773 8.27275 38.3641 8.27275C39.3144 8.27275 39.9532 7.56389 39.9532 6.39543C39.9532 5.24256 39.3144 4.54149 38.3641 4.54149C37.5773 4.54928 37.032 4.97771 36.7282 5.62425Z" fill="#0E1017"/>
<path d="M42.3765 7.71184C42.3765 6.68361 43.0152 5.96696 44.0746 5.83454L46.5128 5.52295V5.21915C46.5128 4.85304 46.3258 4.6583 45.9831 4.6583H42.9217V3.35742H46.0376C47.2762 3.35742 47.9539 3.96502 47.9539 5.03999V9.44115H46.505V8.70113C46.0844 9.29315 45.3911 9.62811 44.4953 9.62811C43.2333 9.62811 42.3765 8.85693 42.3765 7.71184ZM44.8458 8.45965C45.578 8.45965 46.2557 8.0468 46.505 7.43921V6.67582L44.6433 6.93288C44.1291 7.00298 43.8409 7.27562 43.8409 7.71963C43.8409 8.1948 44.207 8.45965 44.8458 8.45965Z" fill="#0E1017"/>
<path d="M48.9972 10.5161H50.0411C50.4383 10.5161 50.6175 10.3526 50.7499 9.97866L50.9369 9.44117L48.7246 3.35742H50.2202L51.599 7.59501H51.6302L52.9466 3.35742H54.4189L51.9963 10.3448C51.6691 11.3029 51.2329 11.817 50.1657 11.817H48.9972V10.5161Z" fill="#0E1017"/>
<path d="M5.25804 16C6.92503 16 8.29601 15.4781 9.19961 14.6056C9.87732 13.9357 10.2746 13.0321 10.2746 11.9883C10.2746 11.0458 9.92405 10.1967 9.27751 9.55015C8.63097 8.9036 7.704 8.42843 6.53554 8.20253L4.61928 7.82863C3.82473 7.68062 3.37293 7.28335 3.37293 6.73028C3.37293 6.00584 4.074 5.5073 5.19572 5.5073C5.89679 5.5073 6.49659 5.7332 6.89387 6.13048C7.14314 6.40312 7.31451 6.75365 7.36904 7.15093L10.1344 6.52775C10.0565 5.7332 9.68258 5.03213 9.11393 4.4557C8.20254 3.55988 6.80818 2.99124 5.16456 2.99124C3.64557 2.99124 2.37585 3.48978 1.49562 4.28432C0.747809 4.98539 0.327166 5.92795 0.327166 6.97955C0.327166 7.89873 0.623174 8.6777 1.22298 9.26972C1.82279 9.86952 2.69523 10.3135 3.84031 10.594L5.73321 11.0458C6.68355 11.2717 7.10419 11.6222 7.10419 12.2454C7.10419 13.0166 6.40312 13.4684 5.25804 13.4684C4.43233 13.4684 3.76242 13.1957 3.34177 12.7439C3.04577 12.4479 2.8666 12.0428 2.84323 11.5988L0 12.222C0.0778968 13.0711 0.475171 13.8189 1.07498 14.4187C2.01753 15.408 3.54431 16 5.25804 16ZM26.3058 16C28.1519 16 29.5696 15.3301 30.5433 14.3797C31.3145 13.6319 31.7897 12.7595 32.039 11.8637L29.1256 10.89C29.001 11.3418 28.7517 11.8169 28.3544 12.1831C27.8793 12.6349 27.2327 12.9542 26.3058 12.9542C25.4567 12.9542 24.6621 12.6271 24.0857 12.0584C23.5093 11.4586 23.1587 10.5862 23.1587 9.48783C23.1587 8.36611 23.5093 7.51704 24.0857 6.91723C24.6543 6.3408 25.4333 6.04479 26.2824 6.04479C27.1782 6.04479 27.8014 6.3408 28.2532 6.7926C28.6271 7.1665 28.853 7.64167 29.001 8.11685L31.9689 7.11977C31.743 6.24732 31.2678 5.37488 30.5745 4.65044C29.5774 3.67673 28.1285 2.98345 26.2123 2.98345C24.444 2.98345 22.8471 3.65336 21.7021 4.80623C20.557 5.97468 19.8559 7.60273 19.8559 9.49562C19.8559 11.3885 20.5803 13.0088 21.7488 14.185C22.8861 15.3301 24.5063 16 26.3058 16ZM16.2337 16C17.5268 16 18.4538 15.6027 18.851 15.2522V12.557C18.5472 12.7829 17.9552 13.0555 17.1763 13.0555C16.6232 13.0555 16.2259 12.9309 15.9299 12.6582C15.6806 12.409 15.556 11.9805 15.556 11.4119V0H12.261V3.36514H18.8432V6.55891H12.261V12.222C12.261 13.3671 12.6115 14.2941 13.2347 14.9406C13.9357 15.6261 14.964 16 16.2337 16Z" fill="#0E1017"/>
</svg>
